<?xml version="1.0" encoding="UTF-8" standalone="no" ?>
<COLLADA xmlns="http://www.collada.org/2005/11/COLLADASchema" version="1.4.1">
  <asset>
    <contributor>
      <author>Assimp</author>
      <authoring_tool>Assimp Exporter</authoring_tool>
    </contributor>
    <created>2026-08-11T14:31:00</created>
    <modified>2026-08-11T14:31:00</modified>
    <unit name="meter" meter="1" />
    <up_axis>Z_UP</up_axis>
  </asset>
  <library_images>
    <image id="_DPDIDVDTWW25_H1181_37WDIE1DlWDHDkDvDsE2DkDuE.WE0DkDlDkDu-diffuse-image">
      <init_from>%d1%82%d0%b5%d1%81%d1%82_textures\h1181.jpg</init_from>
    </image>
  </library_images>
  <library_effects>
    <effect id="_DPDIDVDTWW25_H1181_37WDIE1DlWDHDkDvDsE2DkDuE.WE0DkDlDkDu-fx" name="ЛДСП  25_H1181_37 Дуб Галифакс табак">
      <profile_COMMON>
        <newparam sid="_DPDIDVDTWW25_H1181_37WDIE1DlWDHDkDvDsE2DkDuE.WE0DkDlDkDu-diffuse-surface">
          <surface type="2D">
            <init_from>_DPDIDVDTWW25_H1181_37WDIE1DlWDHDkDvDsE2DkDuE.WE0DkDlDkDu-diffuse-image</init_from>
          </surface>
        </newparam>
        <newparam sid="_DPDIDVDTWW25_H1181_37WDIE1DlWDHDkDvDsE2DkDuE.WE0DkDlDkDu-diffuse-sampler">
          <sampler2D>
            <source>_DPDIDVDTWW25_H1181_37WDIE1DlWDHDkDvDsE2DkDuE.WE0DkDlDkDu-diffuse-surface</source>
          </sampler2D>
        </newparam>
        <technique sid="standard">
          <phong>
            <diffuse>
              <texture texture="_DPDIDVDTWW25_H1181_37WDIE1DlWDHDkDvDsE2DkDuE.WE0DkDlDkDu-diffuse-sampler" texcoord="CHANNEL0" />
            </diffuse>
          </phong>
        </technique>
      </profile_COMMON>
    </effect>
  </library_effects>
  <library_materials>
    <material id="_DPDIDVDTWW25_H1181_37WDIE1DlWDHDkDvDsE2DkDuE.WE0DkDlDkDu" name="ЛДСП  25_H1181_37 Дуб Галифакс табак">
      <instance_effect url="#_DPDIDVDTWW25_H1181_37WDIE1DlWDHDkDvDsE2DkDuE.WE0DkDlDkDu-fx"/>
    </material>
  </library_materials>
  <library_geometries>
    <geometry id="mesh_0" name="" >
      <mesh>
        <source id="mesh_0-positions" name="mesh_0-positions">
          <float_array id="mesh_0-positions-array" count="18"> 985.904785 -1593.18604 357.533783 985.904785 1591.3042 365.818085 1165.6355 1588.61267 1400.4718 985.904785 -1593.18604 357.533783 1165.6355 1588.61267 1400.4718 1165.6355 -1595.87756 1392.1875 </float_array>
          <technique_common>
            <accessor count="6" offset="0" source="#mesh_0-positions-array" stride="3">
              <param name="X" type="float" />
              <param name="Y" type="float" />
              <param name="Z" type="float" />
            </accessor>
          </technique_common>
        </source>
        <source id="mesh_0-normals" name="mesh_0-normals">
          <float_array id="mesh_0-normals-array" count="18"> 0.985245407 0.000445230689 -0.171146885 0.985245407 0.000445230689 -0.171146885 0.985245407 0.000445230689 -0.171146885 0.985245407 0.000445230689 -0.171146885 0.985245407 0.000445230689 -0.171146885 0.985245407 0.000445230689 -0.171146885 </float_array>
          <technique_common>
            <accessor count="6" offset="0" source="#mesh_0-normals-array" stride="3">
              <param name="X" type="float" />
              <param name="Y" type="float" />
              <param name="Z" type="float" />
            </accessor>
          </technique_common>
        </source>
        <source id="mesh_0-tex0" name="mesh_0-tex0">
          <float_array id="mesh_0-tex0-array" count="12"> 0 -1.59225047 0 0 0.525075853 0 0 -1.59225047 0.525075853 0 0.525075853 -1.59225047 </float_array>
          <technique_common>
            <accessor count="6" offset="0" source="#mesh_0-tex0-array" stride="2">
              <param name="S" type="float" />
              <param name="T" type="float" />
            </accessor>
          </technique_common>
        </source>
        <vertices id="mesh_0-vertices">
          <input semantic="POSITION" source="#mesh_0-positions" />
        </vertices>
        <polylist count="2" material="defaultMaterial">
          <input offset="0" semantic="VERTEX" source="#mesh_0-vertices" />
          <input offset="0" semantic="NORMAL" source="#mesh_0-normals" />
          <input offset="0" semantic="TEXCOORD" source="#mesh_0-tex0" set="0" />
          <vcount>3 3 </vcount>
          <p>0 1 2 3 4 5 </p>
        </polylist>
      </mesh>
    </geometry>
    <geometry id="mesh_1" name="" >
      <mesh>
        <source id="mesh_1-positions" name="mesh_1-positions">
          <float_array id="mesh_1-positions-array" count="18"> 1165.6355 -1595.87756 1392.1875 1165.6355 1588.61267 1400.4718 359.461548 1586.86194 2073.44971 1165.6355 -1595.87756 1392.1875 359.461548 1586.86194 2073.44971 359.461548 -1597.6283 2065.16528 </float_array>
          <technique_common>
            <accessor count="6" offset="0" source="#mesh_1-positions-array" stride="3">
              <param name="X" type="float" />
              <param name="Y" type="float" />
              <param name="Z" type="float" />
            </accessor>
          </technique_common>
        </source>
        <source id="mesh_1-normals" name="mesh_1-normals">
          <float_array id="mesh_1-normals-array" count="18"> 0.640840769 -0.00199706107 0.767671227 0.640840769 -0.00199706107 0.767671227 0.640840769 -0.00199706107 0.767671227 0.640840769 -0.00199706107 0.767671227 0.640840769 -0.00199706107 0.767671227 0.640840769 -0.00199706107 0.767671227 </float_array>
          <technique_common>
            <accessor count="6" offset="0" source="#mesh_1-normals-array" stride="3">
              <param name="X" type="float" />
              <param name="Y" type="float" />
              <param name="Z" type="float" />
            </accessor>
          </technique_common>
        </source>
        <source id="mesh_1-tex0" name="mesh_1-tex0">
          <float_array id="mesh_1-tex0-array" count="12"> 0 -1.59225047 0 0 0.525075853 0 0 -1.59225047 0.525075853 0 0.525075853 -1.59225047 </float_array>
          <technique_common>
            <accessor count="6" offset="0" source="#mesh_1-tex0-array" stride="2">
              <param name="S" type="float" />
              <param name="T" type="float" />
            </accessor>
          </technique_common>
        </source>
        <vertices id="mesh_1-vertices">
          <input semantic="POSITION" source="#mesh_1-positions" />
        </vertices>
        <polylist count="2" material="defaultMaterial">
          <input offset="0" semantic="VERTEX" source="#mesh_1-vertices" />
          <input offset="0" semantic="NORMAL" source="#mesh_1-normals" />
          <input offset="0" semantic="TEXCOORD" source="#mesh_1-tex0" set="0" />
          <vcount>3 3 </vcount>
          <p>0 1 2 3 4 5 </p>
        </polylist>
      </mesh>
    </geometry>
    <geometry id="mesh_2" name="" >
      <mesh>
        <source id="mesh_2-positions" name="mesh_2-positions">
          <float_array id="mesh_2-positions-array" count="18"> 359.461548 -1597.6283 2065.16528 359.461548 1586.86194 2073.44971 -626.443237 1587.80273 1711.77356 359.461548 -1597.6283 2065.16528 -626.443237 1587.80273 1711.77356 -626.443237 -1596.68738 1703.48926 </float_array>
          <technique_common>
            <accessor count="6" offset="0" source="#mesh_2-positions-array" stride="3">
              <param name="X" type="float" />
              <param name="Y" type="float" />
              <param name="Z" type="float" />
            </accessor>
          </technique_common>
        </source>
        <source id="mesh_2-normals" name="mesh_2-normals">
          <float_array id="mesh_2-normals-array" count="18"> -0.344404668 -0.00244229194 0.938818157 -0.344404668 -0.00244229194 0.938818157 -0.344404668 -0.00244229194 0.938818157 -0.344404668 -0.00244229194 0.938818157 -0.344404668 -0.00244229194 0.938818157 -0.344404668 -0.00244229194 0.938818157 </float_array>
          <technique_common>
            <accessor count="6" offset="0" source="#mesh_2-normals-array" stride="3">
              <param name="X" type="float" />
              <param name="Y" type="float" />
              <param name="Z" type="float" />
            </accessor>
          </technique_common>
        </source>
        <source id="mesh_2-tex0" name="mesh_2-tex0">
          <float_array id="mesh_2-tex0-array" count="12"> 0 -1.59225047 0 0 0.525075853 0 0 -1.59225047 0.525075853 0 0.525075853 -1.59225047 </float_array>
          <technique_common>
            <accessor count="6" offset="0" source="#mesh_2-tex0-array" stride="2">
              <param name="S" type="float" />
              <param name="T" type="float" />
            </accessor>
          </technique_common>
        </source>
        <vertices id="mesh_2-vertices">
          <input semantic="POSITION" source="#mesh_2-positions" />
        </vertices>
        <polylist count="2" material="defaultMaterial">
          <input offset="0" semantic="VERTEX" source="#mesh_2-vertices" />
          <input offset="0" semantic="NORMAL" source="#mesh_2-normals" />
          <input offset="0" semantic="TEXCOORD" source="#mesh_2-tex0" set="0" />
          <vcount>3 3 </vcount>
          <p>0 1 2 3 4 5 </p>
        </polylist>
      </mesh>
    </geometry>
    <geometry id="mesh_3" name="" >
      <mesh>
        <source id="mesh_3-positions" name="mesh_3-positions">
          <float_array id="mesh_3-positions-array" count="18"> -626.443237 -1596.68738 1703.48926 -626.443237 1587.80273 1711.77356 -806.174072 1590.49438 677.119934 -626.443237 -1596.68738 1703.48926 -806.174072 1590.49438 677.119934 -806.174072 -1593.99585 668.835632 </float_array>
          <technique_common>
            <accessor count="6" offset="0" source="#mesh_3-positions-array" stride="3">
              <param name="X" type="float" />
              <param name="Y" type="float" />
              <param name="Z" type="float" />
            </accessor>
          </technique_common>
        </source>
        <source id="mesh_3-normals" name="mesh_3-normals">
          <float_array id="mesh_3-normals-array" count="18"> -0.985245407 -0.000445230689 0.171146885 -0.985245407 -0.000445230689 0.171146885 -0.985245407 -0.000445230689 0.171146885 -0.985245407 -0.000445230689 0.171146885 -0.985245407 -0.000445230689 0.171146885 -0.985245407 -0.000445230689 0.171146885 </float_array>
          <technique_common>
            <accessor count="6" offset="0" source="#mesh_3-normals-array" stride="3">
              <param name="X" type="float" />
              <param name="Y" type="float" />
              <param name="Z" type="float" />
            </accessor>
          </technique_common>
        </source>
        <source id="mesh_3-tex0" name="mesh_3-tex0">
          <float_array id="mesh_3-tex0-array" count="12"> 0 -1.59225047 0 0 0.525075853 0 0 -1.59225047 0.525075853 0 0.525075853 -1.59225047 </float_array>
          <technique_common>
            <accessor count="6" offset="0" source="#mesh_3-tex0-array" stride="2">
              <param name="S" type="float" />
              <param name="T" type="float" />
            </accessor>
          </technique_common>
        </source>
        <vertices id="mesh_3-vertices">
          <input semantic="POSITION" source="#mesh_3-positions" />
        </vertices>
        <polylist count="2" material="defaultMaterial">
          <input offset="0" semantic="VERTEX" source="#mesh_3-vertices" />
          <input offset="0" semantic="NORMAL" source="#mesh_3-normals" />
          <input offset="0" semantic="TEXCOORD" source="#mesh_3-tex0" set="0" />
          <vcount>3 3 </vcount>
          <p>0 1 2 3 4 5 </p>
        </polylist>
      </mesh>
    </geometry>
    <geometry id="mesh_4" name="" >
      <mesh>
        <source id="mesh_4-positions" name="mesh_4-positions">
          <float_array id="mesh_4-positions-array" count="18"> -806.174072 -1593.99585 668.835632 -806.174072 1590.49438 677.119934 0 1592.24512 4.14215183 -806.174072 -1593.99585 668.835632 0 1592.24512 4.14215183 6.82121026e-13 -1592.24512 -4.14215183 </float_array>
          <technique_common>
            <accessor count="6" offset="0" source="#mesh_4-positions-array" stride="3">
              <param name="X" type="float" />
              <param name="Y" type="float" />
              <param name="Z" type="float" />
            </accessor>
          </technique_common>
        </source>
        <source id="mesh_4-normals" name="mesh_4-normals">
          <float_array id="mesh_4-normals-array" count="18"> -0.640840769 0.00199706107 -0.767671227 -0.640840769 0.00199706107 -0.767671227 -0.640840769 0.00199706107 -0.767671227 -0.640840769 0.00199706107 -0.767671227 -0.640840769 0.00199706107 -0.767671227 -0.640840769 0.00199706107 -0.767671227 </float_array>
          <technique_common>
            <accessor count="6" offset="0" source="#mesh_4-normals-array" stride="3">
              <param name="X" type="float" />
              <param name="Y" type="float" />
              <param name="Z" type="float" />
            </accessor>
          </technique_common>
        </source>
        <source id="mesh_4-tex0" name="mesh_4-tex0">
          <float_array id="mesh_4-tex0-array" count="12"> 0 -1.59225047 0 0 0.525075853 0 0 -1.59225047 0.525075853 0 0.525075853 -1.59225047 </float_array>
          <technique_common>
            <accessor count="6" offset="0" source="#mesh_4-tex0-array" stride="2">
              <param name="S" type="float" />
              <param name="T" type="float" />
            </accessor>
          </technique_common>
        </source>
        <vertices id="mesh_4-vertices">
          <input semantic="POSITION" source="#mesh_4-positions" />
        </vertices>
        <polylist count="2" material="defaultMaterial">
          <input offset="0" semantic="VERTEX" source="#mesh_4-vertices" />
          <input offset="0" semantic="NORMAL" source="#mesh_4-normals" />
          <input offset="0" semantic="TEXCOORD" source="#mesh_4-tex0" set="0" />
          <vcount>3 3 </vcount>
          <p>0 1 2 3 4 5 </p>
        </polylist>
      </mesh>
    </geometry>
    <geometry id="mesh_5" name="" >
      <mesh>
        <source id="mesh_5-positions" name="mesh_5-positions">
          <float_array id="mesh_5-positions-array" count="18"> 6.82121026e-13 -1592.24512 -4.14215183 0 1592.24512 4.14215183 985.904785 1591.3042 365.818085 6.82121026e-13 -1592.24512 -4.14215183 985.904785 1591.3042 365.818085 985.904785 -1593.18604 357.533783 </float_array>
          <technique_common>
            <accessor count="6" offset="0" source="#mesh_5-positions-array" stride="3">
              <param name="X" type="float" />
              <param name="Y" type="float" />
              <param name="Z" type="float" />
            </accessor>
          </technique_common>
        </source>
        <source id="mesh_5-normals" name="mesh_5-normals">
          <float_array id="mesh_5-normals-array" count="18"> 0.344404668 0.00244229194 -0.938818157 0.344404668 0.00244229194 -0.938818157 0.344404668 0.00244229194 -0.938818157 0.344404668 0.00244229194 -0.938818157 0.344404668 0.00244229194 -0.938818157 0.344404668 0.00244229194 -0.938818157 </float_array>
          <technique_common>
            <accessor count="6" offset="0" source="#mesh_5-normals-array" stride="3">
              <param name="X" type="float" />
              <param name="Y" type="float" />
              <param name="Z" type="float" />
            </accessor>
          </technique_common>
        </source>
        <source id="mesh_5-tex0" name="mesh_5-tex0">
          <float_array id="mesh_5-tex0-array" count="12"> 0 -1.59225047 0 0 0.525075853 0 0 -1.59225047 0.525075853 0 0.525075853 -1.59225047 </float_array>
          <technique_common>
            <accessor count="6" offset="0" source="#mesh_5-tex0-array" stride="2">
              <param name="S" type="float" />
              <param name="T" type="float" />
            </accessor>
          </technique_common>
        </source>
        <vertices id="mesh_5-vertices">
          <input semantic="POSITION" source="#mesh_5-positions" />
        </vertices>
        <polylist count="2" material="defaultMaterial">
          <input offset="0" semantic="VERTEX" source="#mesh_5-vertices" />
          <input offset="0" semantic="NORMAL" source="#mesh_5-normals" />
          <input offset="0" semantic="TEXCOORD" source="#mesh_5-tex0" set="0" />
          <vcount>3 3 </vcount>
          <p>0 1 2 3 4 5 </p>
        </polylist>
      </mesh>
    </geometry>
    <geometry id="mesh_6" name="" >
      <mesh>
        <source id="mesh_6-positions" name="mesh_6-positions">
          <float_array id="mesh_6-positions-array" count="18"> 300.668579 -1596.7478 1726.71228 300.668579 1587.74231 1734.99658 843.12915 1588.92041 1282.16138 300.668579 -1596.7478 1726.71228 843.12915 1588.92041 1282.16138 843.12915 -1595.56982 1273.87708 </float_array>
          <technique_common>
            <accessor count="6" offset="0" source="#mesh_6-positions-array" stride="3">
              <param name="X" type="float" />
              <param name="Y" type="float" />
              <param name="Z" type="float" />
            </accessor>
          </technique_common>
        </source>
        <source id="mesh_6-normals" name="mesh_6-normals">
          <float_array id="mesh_6-normals-array" count="18"> -0.640840769 0.00199706107 -0.767671227 -0.640840769 0.00199706107 -0.767671227 -0.640840769 0.00199706107 -0.767671227 -0.640840769 0.00199706107 -0.767671227 -0.640840769 0.00199706107 -0.767671227 -0.640840769 0.00199706107 -0.767671227 </float_array>
          <technique_common>
            <accessor count="6" offset="0" source="#mesh_6-normals-array" stride="3">
              <param name="X" type="float" />
              <param name="Y" type="float" />
              <param name="Z" type="float" />
            </accessor>
          </technique_common>
        </source>
        <source id="mesh_6-tex0" name="mesh_6-tex0">
          <float_array id="mesh_6-tex0-array" count="12"> 0 -1.59225047 0 0 0.353314519 0 0 -1.59225047 0.353314519 0 0.353314519 -1.59225047 </float_array>
          <technique_common>
            <accessor count="6" offset="0" source="#mesh_6-tex0-array" stride="2">
              <param name="S" type="float" />
              <param name="T" type="float" />
            </accessor>
          </technique_common>
        </source>
        <vertices id="mesh_6-vertices">
          <input semantic="POSITION" source="#mesh_6-positions" />
        </vertices>
        <polylist count="2" material="defaultMaterial">
          <input offset="0" semantic="VERTEX" source="#mesh_6-vertices" />
          <input offset="0" semantic="NORMAL" source="#mesh_6-normals" />
          <input offset="0" semantic="TEXCOORD" source="#mesh_6-tex0" set="0" />
          <vcount>3 3 </vcount>
          <p>0 1 2 3 4 5 </p>
        </polylist>
      </mesh>
    </geometry>
    <geometry id="mesh_7" name="" >
      <mesh>
        <source id="mesh_7-positions" name="mesh_7-positions">
          <float_array id="mesh_7-positions-array" count="18"> 843.12915 -1595.56982 1273.87708 843.12915 1588.92041 1282.16138 722.191406 1590.73157 585.960693 843.12915 -1595.56982 1273.87708 722.191406 1590.73157 585.960693 722.191406 -1593.75867 577.676392 </float_array>
          <technique_common>
            <accessor count="6" offset="0" source="#mesh_7-positions-array" stride="3">
              <param name="X" type="float" />
              <param name="Y" type="float" />
              <param name="Z" type="float" />
            </accessor>
          </technique_common>
        </source>
        <source id="mesh_7-normals" name="mesh_7-normals">
          <float_array id="mesh_7-normals-array" count="18"> -0.985245407 -0.000445230689 0.171146885 -0.985245407 -0.000445230689 0.171146885 -0.985245407 -0.000445230689 0.171146885 -0.985245407 -0.000445230689 0.171146885 -0.985245407 -0.000445230689 0.171146885 -0.985245407 -0.000445230689 0.171146885 </float_array>
          <technique_common>
            <accessor count="6" offset="0" source="#mesh_7-normals-array" stride="3">
              <param name="X" type="float" />
              <param name="Y" type="float" />
              <param name="Z" type="float" />
            </accessor>
          </technique_common>
        </source>
        <source id="mesh_7-tex0" name="mesh_7-tex0">
          <float_array id="mesh_7-tex0-array" count="12"> 0 -1.59225047 0 0 0.353314519 0 0 -1.59225047 0.353314519 0 0.353314519 -1.59225047 </float_array>
          <technique_common>
            <accessor count="6" offset="0" source="#mesh_7-tex0-array" stride="2">
              <param name="S" type="float" />
              <param name="T" type="float" />
            </accessor>
          </technique_common>
        </source>
        <vertices id="mesh_7-vertices">
          <input semantic="POSITION" source="#mesh_7-positions" />
        </vertices>
        <polylist count="2" material="defaultMaterial">
          <input offset="0" semantic="VERTEX" source="#mesh_7-vertices" />
          <input offset="0" semantic="NORMAL" source="#mesh_7-normals" />
          <input offset="0" semantic="TEXCOORD" source="#mesh_7-tex0" set="0" />
          <vcount>3 3 </vcount>
          <p>0 1 2 3 4 5 </p>
        </polylist>
      </mesh>
    </geometry>
    <geometry id="mesh_8" name="" >
      <mesh>
        <source id="mesh_8-positions" name="mesh_8-positions">
          <float_array id="mesh_8-positions-array" count="18"> 722.191406 -1593.75867 577.676392 722.191406 1590.73157 585.960693 58.7929688 1591.36462 342.595215 722.191406 -1593.75867 577.676392 58.7929688 1591.36462 342.595215 58.7929688 -1593.12561 334.310913 </float_array>
          <technique_common>
            <accessor count="6" offset="0" source="#mesh_8-positions-array" stride="3">
              <param name="X" type="float" />
              <param name="Y" type="float" />
              <param name="Z" type="float" />
            </accessor>
          </technique_common>
        </source>
        <source id="mesh_8-normals" name="mesh_8-normals">
          <float_array id="mesh_8-normals-array" count="18"> -0.344404668 -0.00244229194 0.938818157 -0.344404668 -0.00244229194 0.938818157 -0.344404668 -0.00244229194 0.938818157 -0.344404668 -0.00244229194 0.938818157 -0.344404668 -0.00244229194 0.938818157 -0.344404668 -0.00244229194 0.938818157 </float_array>
          <technique_common>
            <accessor count="6" offset="0" source="#mesh_8-normals-array" stride="3">
              <param name="X" type="float" />
              <param name="Y" type="float" />
              <param name="Z" type="float" />
            </accessor>
          </technique_common>
        </source>
        <source id="mesh_8-tex0" name="mesh_8-tex0">
          <float_array id="mesh_8-tex0-array" count="12"> 0 -1.59225047 0 0 0.353314519 0 0 -1.59225047 0.353314519 0 0.353314519 -1.59225047 </float_array>
          <technique_common>
            <accessor count="6" offset="0" source="#mesh_8-tex0-array" stride="2">
              <param name="S" type="float" />
              <param name="T" type="float" />
            </accessor>
          </technique_common>
        </source>
        <vertices id="mesh_8-vertices">
          <input semantic="POSITION" source="#mesh_8-positions" />
        </vertices>
        <polylist count="2" material="defaultMaterial">
          <input offset="0" semantic="VERTEX" source="#mesh_8-vertices" />
          <input offset="0" semantic="NORMAL" source="#mesh_8-normals" />
          <input offset="0" semantic="TEXCOORD" source="#mesh_8-tex0" set="0" />
          <vcount>3 3 </vcount>
          <p>0 1 2 3 4 5 </p>
        </polylist>
      </mesh>
    </geometry>
    <geometry id="mesh_9" name="" >
      <mesh>
        <source id="mesh_9-positions" name="mesh_9-positions">
          <float_array id="mesh_9-positions-array" count="18"> 58.7929688 -1593.12561 334.310913 58.7929688 1591.36462 342.595215 -483.667603 1590.18665 795.430359 58.7929688 -1593.12561 334.310913 -483.667603 1590.18665 795.430359 -483.667603 -1594.30359 787.146057 </float_array>
          <technique_common>
            <accessor count="6" offset="0" source="#mesh_9-positions-array" stride="3">
              <param name="X" type="float" />
              <param name="Y" type="float" />
              <param name="Z" type="float" />
            </accessor>
          </technique_common>
        </source>
        <source id="mesh_9-normals" name="mesh_9-normals">
          <float_array id="mesh_9-normals-array" count="18"> 0.640840769 -0.00199706107 0.767671227 0.640840769 -0.00199706107 0.767671227 0.640840769 -0.00199706107 0.767671227 0.640840769 -0.00199706107 0.767671227 0.640840769 -0.00199706107 0.767671227 0.640840769 -0.00199706107 0.767671227 </float_array>
          <technique_common>
            <accessor count="6" offset="0" source="#mesh_9-normals-array" stride="3">
              <param name="X" type="float" />
              <param name="Y" type="float" />
              <param name="Z" type="float" />
            </accessor>
          </technique_common>
        </source>
        <source id="mesh_9-tex0" name="mesh_9-tex0">
          <float_array id="mesh_9-tex0-array" count="12"> 0 -1.59225047 0 0 0.353314519 0 0 -1.59225047 0.353314519 0 0.353314519 -1.59225047 </float_array>
          <technique_common>
            <accessor count="6" offset="0" source="#mesh_9-tex0-array" stride="2">
              <param name="S" type="float" />
              <param name="T" type="float" />
            </accessor>
          </technique_common>
        </source>
        <vertices id="mesh_9-vertices">
          <input semantic="POSITION" source="#mesh_9-positions" />
        </vertices>
        <polylist count="2" material="defaultMaterial">
          <input offset="0" semantic="VERTEX" source="#mesh_9-vertices" />
          <input offset="0" semantic="NORMAL" source="#mesh_9-normals" />
          <input offset="0" semantic="TEXCOORD" source="#mesh_9-tex0" set="0" />
          <vcount>3 3 </vcount>
          <p>0 1 2 3 4 5 </p>
        </polylist>
      </mesh>
    </geometry>
    <geometry id="mesh_10" name="" >
      <mesh>
        <source id="mesh_10-positions" name="mesh_10-positions">
          <float_array id="mesh_10-positions-array" count="18"> -483.667603 -1594.30359 787.146057 -483.667603 1590.18665 795.430359 -362.729858 1588.37549 1491.63098 -483.667603 -1594.30359 787.146057 -362.729858 1588.37549 1491.63098 -362.729858 -1596.11475 1483.34668 </float_array>
          <technique_common>
            <accessor count="6" offset="0" source="#mesh_10-positions-array" stride="3">
              <param name="X" type="float" />
              <param name="Y" type="float" />
              <param name="Z" type="float" />
            </accessor>
          </technique_common>
        </source>
        <source id="mesh_10-normals" name="mesh_10-normals">
          <float_array id="mesh_10-normals-array" count="18"> 0.985245407 0.000445230689 -0.171146885 0.985245407 0.000445230689 -0.171146885 0.985245407 0.000445230689 -0.171146885 0.985245407 0.000445230689 -0.171146885 0.985245407 0.000445230689 -0.171146885 0.985245407 0.000445230689 -0.171146885 </float_array>
          <technique_common>
            <accessor count="6" offset="0" source="#mesh_10-normals-array" stride="3">
              <param name="X" type="float" />
              <param name="Y" type="float" />
              <param name="Z" type="float" />
            </accessor>
          </technique_common>
        </source>
        <source id="mesh_10-tex0" name="mesh_10-tex0">
          <float_array id="mesh_10-tex0-array" count="12"> 0 -1.59225047 0 0 0.353314519 0 0 -1.59225047 0.353314519 0 0.353314519 -1.59225047 </float_array>
          <technique_common>
            <accessor count="6" offset="0" source="#mesh_10-tex0-array" stride="2">
              <param name="S" type="float" />
              <param name="T" type="float" />
            </accessor>
          </technique_common>
        </source>
        <vertices id="mesh_10-vertices">
          <input semantic="POSITION" source="#mesh_10-positions" />
        </vertices>
        <polylist count="2" material="defaultMaterial">
          <input offset="0" semantic="VERTEX" source="#mesh_10-vertices" />
          <input offset="0" semantic="NORMAL" source="#mesh_10-normals" />
          <input offset="0" semantic="TEXCOORD" source="#mesh_10-tex0" set="0" />
          <vcount>3 3 </vcount>
          <p>0 1 2 3 4 5 </p>
        </polylist>
      </mesh>
    </geometry>
    <geometry id="mesh_11" name="" >
      <mesh>
        <source id="mesh_11-positions" name="mesh_11-positions">
          <float_array id="mesh_11-positions-array" count="18"> -362.729858 -1596.11475 1483.34668 -362.729858 1588.37549 1491.63098 300.668579 1587.74231 1734.99658 -362.729858 -1596.11475 1483.34668 300.668579 1587.74231 1734.99658 300.668579 -1596.7478 1726.71228 </float_array>
          <technique_common>
            <accessor count="6" offset="0" source="#mesh_11-positions-array" stride="3">
              <param name="X" type="float" />
              <param name="Y" type="float" />
              <param name="Z" type="float" />
            </accessor>
          </technique_common>
        </source>
        <source id="mesh_11-normals" name="mesh_11-normals">
          <float_array id="mesh_11-normals-array" count="18"> 0.344404668 0.00244229194 -0.938818157 0.344404668 0.00244229194 -0.938818157 0.344404668 0.00244229194 -0.938818157 0.344404668 0.00244229194 -0.938818157 0.344404668 0.00244229194 -0.938818157 0.344404668 0.00244229194 -0.938818157 </float_array>
          <technique_common>
            <accessor count="6" offset="0" source="#mesh_11-normals-array" stride="3">
              <param name="X" type="float" />
              <param name="Y" type="float" />
              <param name="Z" type="float" />
            </accessor>
          </technique_common>
        </source>
        <source id="mesh_11-tex0" name="mesh_11-tex0">
          <float_array id="mesh_11-tex0-array" count="12"> 0 -1.59225047 0 0 0.353314519 0 0 -1.59225047 0.353314519 0 0.353314519 -1.59225047 </float_array>
          <technique_common>
            <accessor count="6" offset="0" source="#mesh_11-tex0-array" stride="2">
              <param name="S" type="float" />
              <param name="T" type="float" />
            </accessor>
          </technique_common>
        </source>
        <vertices id="mesh_11-vertices">
          <input semantic="POSITION" source="#mesh_11-positions" />
        </vertices>
        <polylist count="2" material="defaultMaterial">
          <input offset="0" semantic="VERTEX" source="#mesh_11-vertices" />
          <input offset="0" semantic="NORMAL" source="#mesh_11-normals" />
          <input offset="0" semantic="TEXCOORD" source="#mesh_11-tex0" set="0" />
          <vcount>3 3 </vcount>
          <p>0 1 2 3 4 5 </p>
        </polylist>
      </mesh>
    </geometry>
    <geometry id="mesh_12" name="" >
      <mesh>
        <source id="mesh_12-positions" name="mesh_12-positions">
          <float_array id="mesh_12-positions-array" count="108"> 1165.6355 1588.61267 1400.4718 843.12915 1588.92041 1282.16138 359.461548 1586.86194 2073.44971 843.12915 1588.92041 1282.16138 300.668579 1587.74231 1734.99658 359.461548 1586.86194 2073.44971 359.461548 1586.86194 2073.44971 300.668579 1587.74231 1734.99658 -626.443237 1587.80273 1711.77356 300.668579 1587.74231 1734.99658 -362.729858 1588.37549 1491.63098 -626.443237 1587.80273 1711.77356 -626.443237 1587.80273 1711.77356 -362.729858 1588.37549 1491.63098 -806.174072 1590.49438 677.119934 -362.729858 1588.37549 1491.63098 -483.667603 1590.18665 795.430359 -806.174072 1590.49438 677.119934 -806.174072 1590.49438 677.119934 -483.667603 1590.18665 795.430359 0 1592.24512 4.14215183 -483.667603 1590.18665 795.430359 58.7929688 1591.36462 342.595215 0 1592.24512 4.14215183 0 1592.24512 4.14215183 58.7929688 1591.36462 342.595215 985.904785 1591.3042 365.818085 58.7929688 1591.36462 342.595215 722.191406 1590.73157 585.960693 985.904785 1591.3042 365.818085 985.904785 1591.3042 365.818085 722.191406 1590.73157 585.960693 1165.6355 1588.61267 1400.4718 722.191406 1590.73157 585.960693 843.12915 1588.92041 1282.16138 1165.6355 1588.61267 1400.4718 </float_array>
          <technique_common>
            <accessor count="36" offset="0" source="#mesh_12-positions-array" stride="3">
              <param name="X" type="float" />
              <param name="Y" type="float" />
              <param name="Z" type="float" />
            </accessor>
          </technique_common>
        </source>
        <source id="mesh_12-normals" name="mesh_12-normals">
          <float_array id="mesh_12-normals-array" count="108"> -2.22043851e-16 0.999996603 0.00260144472 -2.22043851e-16 0.999996603 0.00260144472 -2.22043851e-16 0.999996603 0.00260144472 -2.22043851e-16 0.999996603 0.00260144472 -2.22043851e-16 0.999996603 0.00260144472 -2.22043851e-16 0.999996603 0.00260144472 -2.22043851e-16 0.999996603 0.00260144472 -2.22043851e-16 0.999996603 0.00260144472 -2.22043851e-16 0.999996603 0.00260144472 -2.22043851e-16 0.999996603 0.00260144472 -2.22043851e-16 0.999996603 0.00260144472 -2.22043851e-16 0.999996603 0.00260144472 -2.22043851e-16 0.999996603 0.00260144472 -2.22043851e-16 0.999996603 0.00260144472 -2.22043851e-16 0.999996603 0.00260144472 -2.22043851e-16 0.999996603 0.00260144472 -2.22043851e-16 0.999996603 0.00260144472 -2.22043851e-16 0.999996603 0.00260144472 -2.22043851e-16 0.999996603 0.00260144472 -2.22043851e-16 0.999996603 0.00260144472 -2.22043851e-16 0.999996603 0.00260144472 -2.22043851e-16 0.999996603 0.00260144472 -2.22043851e-16 0.999996603 0.00260144472 -2.22043851e-16 0.999996603 0.00260144472 -2.22043851e-16 0.999996603 0.00260144472 -2.22043851e-16 0.999996603 0.00260144472 -2.22043851e-16 0.999996603 0.00260144472 -2.22043851e-16 0.999996603 0.00260144472 -2.22043851e-16 0.999996603 0.00260144472 -2.22043851e-16 0.999996603 0.00260144472 -2.22043851e-16 0.999996603 0.00260144472 -2.22043851e-16 0.999996603 0.00260144472 -2.22043851e-16 0.999996603 0.00260144472 -2.22043851e-16 0.999996603 0.00260144472 -2.22043851e-16 0.999996603 0.00260144472 -2.22043851e-16 0.999996603 0.00260144472 </float_array>
          <technique_common>
            <accessor count="36" offset="0" source="#mesh_12-normals-array" stride="3">
              <param name="X" type="float" />
              <param name="Y" type="float" />
              <param name="Z" type="float" />
            </accessor>
          </technique_common>
        </source>
        <source id="mesh_12-tex0" name="mesh_12-tex0">
          <float_array id="mesh_12-tex0-array" count="72"> -1.35438311 -0.526571453 -1.1931299 -0.467416048 -0.951296091 -0.863061547 -1.1931299 -0.467416048 -0.921899617 -0.693834424 -0.951296091 -0.863061547 -0.951296091 -0.863061547 -0.921899617 -0.693834424 -0.458343685 -0.682222903 -0.921899617 -0.693834424 -0.590200365 -0.572151244 -0.458343685 -0.682222903 -0.458343685 -0.682222903 -0.590200365 -0.572151244 -0.368478268 -0.164894313 -0.590200365 -0.572151244 -0.529731512 -0.224049747 -0.368478268 -0.164894313 -0.368478268 -0.164894313 -0.529731512 -0.224049747 -0.771565318 0.171595708 -0.529731512 -0.224049747 -0.800961792 0.00236859848 -0.771565318 0.171595708 -0.771565318 0.171595708 -0.800961792 0.00236859848 -1.26451766 -0.00924287084 -0.800961792 0.00236859848 -1.13266098 -0.119314559 -1.26451766 -0.00924287084 -1.26451766 -0.00924287084 -1.13266098 -0.119314559 -1.35438311 -0.526571453 -1.13266098 -0.119314559 -1.1931299 -0.467416048 -1.35438311 -0.526571453 </float_array>
          <technique_common>
            <accessor count="36" offset="0" source="#mesh_12-tex0-array" stride="2">
              <param name="S" type="float" />
              <param name="T" type="float" />
            </accessor>
          </technique_common>
        </source>
        <vertices id="mesh_12-vertices">
          <input semantic="POSITION" source="#mesh_12-positions" />
        </vertices>
        <polylist count="12" material="defaultMaterial">
          <input offset="0" semantic="VERTEX" source="#mesh_12-vertices" />
          <input offset="0" semantic="NORMAL" source="#mesh_12-normals" />
          <input offset="0" semantic="TEXCOORD" source="#mesh_12-tex0" set="0" />
          <vcount>3 3 3 3 3 3 3 3 3 3 3 3 </vcount>
          <p>0 1 2 3 4 5 6 7 8 9 10 11 12 13 14 15 16 17 18 19 20 21 22 23 24 25 26 27 28 29 30 31 32 33 34 35 </p>
        </polylist>
      </mesh>
    </geometry>
    <geometry id="mesh_13" name="" >
      <mesh>
        <source id="mesh_13-positions" name="mesh_13-positions">
          <float_array id="mesh_13-positions-array" count="108"> 6.82121026e-13 -1592.24512 -4.14215183 58.7929688 -1593.12561 334.310913 -806.174072 -1593.99585 668.835632 58.7929688 -1593.12561 334.310913 -483.667603 -1594.30359 787.146057 -806.174072 -1593.99585 668.835632 -806.174072 -1593.99585 668.835632 -483.667603 -1594.30359 787.146057 -626.443237 -1596.68738 1703.48926 -483.667603 -1594.30359 787.146057 -362.729858 -1596.11475 1483.34668 -626.443237 -1596.68738 1703.48926 -626.443237 -1596.68738 1703.48926 -362.729858 -1596.11475 1483.34668 359.461548 -1597.6283 2065.16528 -362.729858 -1596.11475 1483.34668 300.668579 -1596.7478 1726.71228 359.461548 -1597.6283 2065.16528 359.461548 -1597.6283 2065.16528 300.668579 -1596.7478 1726.71228 1165.6355 -1595.87756 1392.1875 300.668579 -1596.7478 1726.71228 843.12915 -1595.56982 1273.87708 1165.6355 -1595.87756 1392.1875 1165.6355 -1595.87756 1392.1875 843.12915 -1595.56982 1273.87708 985.904785 -1593.18604 357.533783 843.12915 -1595.56982 1273.87708 722.191406 -1593.75867 577.676392 985.904785 -1593.18604 357.533783 985.904785 -1593.18604 357.533783 722.191406 -1593.75867 577.676392 6.82121026e-13 -1592.24512 -4.14215183 722.191406 -1593.75867 577.676392 58.7929688 -1593.12561 334.310913 6.82121026e-13 -1592.24512 -4.14215183 </float_array>
          <technique_common>
            <accessor count="36" offset="0" source="#mesh_13-positions-array" stride="3">
              <param name="X" type="float" />
              <param name="Y" type="float" />
              <param name="Z" type="float" />
            </accessor>
          </technique_common>
        </source>
        <source id="mesh_13-normals" name="mesh_13-normals">
          <float_array id="mesh_13-normals-array" count="108"> 2.22043851e-16 -0.999996603 -0.00260144472 2.22043851e-16 -0.999996603 -0.00260144472 2.22043851e-16 -0.999996603 -0.00260144472 2.22043851e-16 -0.999996603 -0.00260144472 2.22043851e-16 -0.999996603 -0.00260144472 2.22043851e-16 -0.999996603 -0.00260144472 2.22043851e-16 -0.999996603 -0.00260144472 2.22043851e-16 -0.999996603 -0.00260144472 2.22043851e-16 -0.999996603 -0.00260144472 2.22043851e-16 -0.999996603 -0.00260144472 2.22043851e-16 -0.999996603 -0.00260144472 2.22043851e-16 -0.999996603 -0.00260144472 2.22043851e-16 -0.999996603 -0.00260144472 2.22043851e-16 -0.999996603 -0.00260144472 2.22043851e-16 -0.999996603 -0.00260144472 2.22043851e-16 -0.999996603 -0.00260144472 2.22043851e-16 -0.999996603 -0.00260144472 2.22043851e-16 -0.999996603 -0.00260144472 2.22043851e-16 -0.999996603 -0.00260144472 2.22043851e-16 -0.999996603 -0.00260144472 2.22043851e-16 -0.999996603 -0.00260144472 2.22043851e-16 -0.999996603 -0.00260144472 2.22043851e-16 -0.999996603 -0.00260144472 2.22043851e-16 -0.999996603 -0.00260144472 2.22043851e-16 -0.999996603 -0.00260144472 2.22043851e-16 -0.999996603 -0.00260144472 2.22043851e-16 -0.999996603 -0.00260144472 2.22043851e-16 -0.999996603 -0.00260144472 2.22043851e-16 -0.999996603 -0.00260144472 2.22043851e-16 -0.999996603 -0.00260144472 2.22043851e-16 -0.999996603 -0.00260144472 2.22043851e-16 -0.999996603 -0.00260144472 2.22043851e-16 -0.999996603 -0.00260144472 2.22043851e-16 -0.999996603 -0.00260144472 2.22043851e-16 -0.999996603 -0.00260144472 2.22043851e-16 -0.999996603 -0.00260144472 </float_array>
          <technique_common>
            <accessor count="36" offset="0" source="#mesh_13-normals-array" stride="3">
              <param name="X" type="float" />
              <param name="Y" type="float" />
              <param name="Z" type="float" />
            </accessor>
          </technique_common>
        </source>
        <source id="mesh_13-tex0" name="mesh_13-tex0">
          <float_array id="mesh_13-tex0-array" count="72"> 0.771565318 0.171595708 0.800961792 0.00236859848 0.368478268 -0.164894313 0.800961792 0.00236859848 0.529731512 -0.224049747 0.368478268 -0.164894313 0.368478268 -0.164894313 0.529731512 -0.224049747 0.458343685 -0.682222903 0.529731512 -0.224049747 0.590200365 -0.572151244 0.458343685 -0.682222903 0.458343685 -0.682222903 0.590200365 -0.572151244 0.951296091 -0.863061547 0.590200365 -0.572151244 0.921899617 -0.693834424 0.951296091 -0.863061547 0.951296091 -0.863061547 0.921899617 -0.693834424 1.35438311 -0.526571453 0.921899617 -0.693834424 1.1931299 -0.467416048 1.35438311 -0.526571453 1.35438311 -0.526571453 1.1931299 -0.467416048 1.26451766 -0.00924287084 1.1931299 -0.467416048 1.13266098 -0.119314559 1.26451766 -0.00924287084 1.26451766 -0.00924287084 1.13266098 -0.119314559 0.771565318 0.171595708 1.13266098 -0.119314559 0.800961792 0.00236859848 0.771565318 0.171595708 </float_array>
          <technique_common>
            <accessor count="36" offset="0" source="#mesh_13-tex0-array" stride="2">
              <param name="S" type="float" />
              <param name="T" type="float" />
            </accessor>
          </technique_common>
        </source>
        <vertices id="mesh_13-vertices">
          <input semantic="POSITION" source="#mesh_13-positions" />
        </vertices>
        <polylist count="12" material="defaultMaterial">
          <input offset="0" semantic="VERTEX" source="#mesh_13-vertices" />
          <input offset="0" semantic="NORMAL" source="#mesh_13-normals" />
          <input offset="0" semantic="TEXCOORD" source="#mesh_13-tex0" set="0" />
          <vcount>3 3 3 3 3 3 3 3 3 3 3 3 </vcount>
          <p>0 1 2 3 4 5 6 7 8 9 10 11 12 13 14 15 16 17 18 19 20 21 22 23 24 25 26 27 28 29 30 31 32 33 34 35 </p>
        </polylist>
      </mesh>
    </geometry>
  </library_geometries>
  <library_controllers>
  </library_controllers>
  <library_visual_scenes>
    <visual_scene id="node" name="">
      <node id="Model" name="Model" type="NODE">
        <matrix sid="matrix">1 0 0 0 0 1 0 0 0 0 1 0 0 0 0 1</matrix>
        <node id="_DTE-DyE2DsDvEA9" name="Профиль9" type="NODE">
          <matrix sid="matrix">1 0 0 0 0 1 0 0 0 0 1 0 0 0 0 1</matrix>
          <node id="node_1" name="" type="NODE">
            <matrix sid="matrix">1 0 0 0 0 1 0 0 0 0 1 0 0 0 0 1</matrix>
            <instance_geometry url="#mesh_0">
              <bind_material>
                <technique_common>
                  <instance_material symbol="defaultMaterial" target="#_DPDIDVDTWW25_H1181_37WDIE1DlWDHDkDvDsE2DkDuE.WE0DkDlDkDu">
                    <bind_vertex_input semantic="CHANNEL0" input_semantic="TEXCOORD" input_set="0"/>
                  </instance_material>
                </technique_common>
              </bind_material>
            </instance_geometry>
          </node>
          <node id="node_2" name="" type="NODE">
            <matrix sid="matrix">1 0 0 0 0 1 0 0 0 0 1 0 0 0 0 1</matrix>
            <instance_geometry url="#mesh_1">
              <bind_material>
                <technique_common>
                  <instance_material symbol="defaultMaterial" target="#_DPDIDVDTWW25_H1181_37WDIE1DlWDHDkDvDsE2DkDuE.WE0DkDlDkDu">
                    <bind_vertex_input semantic="CHANNEL0" input_semantic="TEXCOORD" input_set="0"/>
                  </instance_material>
                </technique_common>
              </bind_material>
            </instance_geometry>
          </node>
          <node id="node_3" name="" type="NODE">
            <matrix sid="matrix">1 0 0 0 0 1 0 0 0 0 1 0 0 0 0 1</matrix>
            <instance_geometry url="#mesh_2">
              <bind_material>
                <technique_common>
                  <instance_material symbol="defaultMaterial" target="#_DPDIDVDTWW25_H1181_37WDIE1DlWDHDkDvDsE2DkDuE.WE0DkDlDkDu">
                    <bind_vertex_input semantic="CHANNEL0" input_semantic="TEXCOORD" input_set="0"/>
                  </instance_material>
                </technique_common>
              </bind_material>
            </instance_geometry>
          </node>
          <node id="node_4" name="" type="NODE">
            <matrix sid="matrix">1 0 0 0 0 1 0 0 0 0 1 0 0 0 0 1</matrix>
            <instance_geometry url="#mesh_3">
              <bind_material>
                <technique_common>
                  <instance_material symbol="defaultMaterial" target="#_DPDIDVDTWW25_H1181_37WDIE1DlWDHDkDvDsE2DkDuE.WE0DkDlDkDu">
                    <bind_vertex_input semantic="CHANNEL0" input_semantic="TEXCOORD" input_set="0"/>
                  </instance_material>
                </technique_common>
              </bind_material>
            </instance_geometry>
          </node>
          <node id="node_5" name="" type="NODE">
            <matrix sid="matrix">1 0 0 0 0 1 0 0 0 0 1 0 0 0 0 1</matrix>
            <instance_geometry url="#mesh_4">
              <bind_material>
                <technique_common>
                  <instance_material symbol="defaultMaterial" target="#_DPDIDVDTWW25_H1181_37WDIE1DlWDHDkDvDsE2DkDuE.WE0DkDlDkDu">
                    <bind_vertex_input semantic="CHANNEL0" input_semantic="TEXCOORD" input_set="0"/>
                  </instance_material>
                </technique_common>
              </bind_material>
            </instance_geometry>
          </node>
          <node id="node_6" name="" type="NODE">
            <matrix sid="matrix">1 0 0 0 0 1 0 0 0 0 1 0 0 0 0 1</matrix>
            <instance_geometry url="#mesh_5">
              <bind_material>
                <technique_common>
                  <instance_material symbol="defaultMaterial" target="#_DPDIDVDTWW25_H1181_37WDIE1DlWDHDkDvDsE2DkDuE.WE0DkDlDkDu">
                    <bind_vertex_input semantic="CHANNEL0" input_semantic="TEXCOORD" input_set="0"/>
                  </instance_material>
                </technique_common>
              </bind_material>
            </instance_geometry>
          </node>
          <node id="node_7" name="" type="NODE">
            <matrix sid="matrix">1 0 0 0 0 1 0 0 0 0 1 0 0 0 0 1</matrix>
            <instance_geometry url="#mesh_6">
              <bind_material>
                <technique_common>
                  <instance_material symbol="defaultMaterial" target="#_DPDIDVDTWW25_H1181_37WDIE1DlWDHDkDvDsE2DkDuE.WE0DkDlDkDu">
                    <bind_vertex_input semantic="CHANNEL0" input_semantic="TEXCOORD" input_set="0"/>
                  </instance_material>
                </technique_common>
              </bind_material>
            </instance_geometry>
          </node>
          <node id="node_8" name="" type="NODE">
            <matrix sid="matrix">1 0 0 0 0 1 0 0 0 0 1 0 0 0 0 1</matrix>
            <instance_geometry url="#mesh_7">
              <bind_material>
                <technique_common>
                  <instance_material symbol="defaultMaterial" target="#_DPDIDVDTWW25_H1181_37WDIE1DlWDHDkDvDsE2DkDuE.WE0DkDlDkDu">
                    <bind_vertex_input semantic="CHANNEL0" input_semantic="TEXCOORD" input_set="0"/>
                  </instance_material>
                </technique_common>
              </bind_material>
            </instance_geometry>
          </node>
          <node id="node_9" name="" type="NODE">
            <matrix sid="matrix">1 0 0 0 0 1 0 0 0 0 1 0 0 0 0 1</matrix>
            <instance_geometry url="#mesh_8">
              <bind_material>
                <technique_common>
                  <instance_material symbol="defaultMaterial" target="#_DPDIDVDTWW25_H1181_37WDIE1DlWDHDkDvDsE2DkDuE.WE0DkDlDkDu">
                    <bind_vertex_input semantic="CHANNEL0" input_semantic="TEXCOORD" input_set="0"/>
                  </instance_material>
                </technique_common>
              </bind_material>
            </instance_geometry>
          </node>
          <node id="node_10" name="" type="NODE">
            <matrix sid="matrix">1 0 0 0 0 1 0 0 0 0 1 0 0 0 0 1</matrix>
            <instance_geometry url="#mesh_9">
              <bind_material>
                <technique_common>
                  <instance_material symbol="defaultMaterial" target="#_DPDIDVDTWW25_H1181_37WDIE1DlWDHDkDvDsE2DkDuE.WE0DkDlDkDu">
                    <bind_vertex_input semantic="CHANNEL0" input_semantic="TEXCOORD" input_set="0"/>
                  </instance_material>
                </technique_common>
              </bind_material>
            </instance_geometry>
          </node>
          <node id="node_11" name="" type="NODE">
            <matrix sid="matrix">1 0 0 0 0 1 0 0 0 0 1 0 0 0 0 1</matrix>
            <instance_geometry url="#mesh_10">
              <bind_material>
                <technique_common>
                  <instance_material symbol="defaultMaterial" target="#_DPDIDVDTWW25_H1181_37WDIE1DlWDHDkDvDsE2DkDuE.WE0DkDlDkDu">
                    <bind_vertex_input semantic="CHANNEL0" input_semantic="TEXCOORD" input_set="0"/>
                  </instance_material>
                </technique_common>
              </bind_material>
            </instance_geometry>
          </node>
          <node id="node_12" name="" type="NODE">
            <matrix sid="matrix">1 0 0 0 0 1 0 0 0 0 1 0 0 0 0 1</matrix>
            <instance_geometry url="#mesh_11">
              <bind_material>
                <technique_common>
                  <instance_material symbol="defaultMaterial" target="#_DPDIDVDTWW25_H1181_37WDIE1DlWDHDkDvDsE2DkDuE.WE0DkDlDkDu">
                    <bind_vertex_input semantic="CHANNEL0" input_semantic="TEXCOORD" input_set="0"/>
                  </instance_material>
                </technique_common>
              </bind_material>
            </instance_geometry>
          </node>
          <node id="node_13" name="" type="NODE">
            <matrix sid="matrix">1 0 0 0 0 1 0 0 0 0 1 0 0 0 0 1</matrix>
            <instance_geometry url="#mesh_12">
              <bind_material>
                <technique_common>
                  <instance_material symbol="defaultMaterial" target="#_DPDIDVDTWW25_H1181_37WDIE1DlWDHDkDvDsE2DkDuE.WE0DkDlDkDu">
                    <bind_vertex_input semantic="CHANNEL0" input_semantic="TEXCOORD" input_set="0"/>
                  </instance_material>
                </technique_common>
              </bind_material>
            </instance_geometry>
          </node>
          <node id="node_14" name="" type="NODE">
            <matrix sid="matrix">1 0 0 0 0 1 0 0 0 0 1 0 0 0 0 1</matrix>
            <instance_geometry url="#mesh_13">
              <bind_material>
                <technique_common>
                  <instance_material symbol="defaultMaterial" target="#_DPDIDVDTWW25_H1181_37WDIE1DlWDHDkDvDsE2DkDuE.WE0DkDlDkDu">
                    <bind_vertex_input semantic="CHANNEL0" input_semantic="TEXCOORD" input_set="0"/>
                  </instance_material>
                </technique_common>
              </bind_material>
            </instance_geometry>
          </node>
        </node>
      </node>
    </visual_scene>
  </library_visual_scenes>
  <scene>
    <instance_visual_scene url="#node" />
  </scene>
</COLLADA>
